<mxfile host="Electron" modified="2024-09-26T22:49:48.444Z" agent="Mozilla/5.0 (Windows NT 10.0; Win64; x64) AppleWebKit/537.36 (KHTML, like Gecko) draw.io/24.6.4 Chrome/124.0.6367.207 Electron/30.0.6 Safari/537.36" etag="K49w44Cb47uS2bc2cTwD" version="24.6.4" type="device">
  <diagram name="Page-1" id="xFXfk-GI2p3G2VyCxVJh">
    <mxGraphModel dx="1674" dy="836" grid="1" gridSize="10" guides="1" tooltips="1" connect="1" arrows="1" fold="1" page="1" pageScale="1" pageWidth="850" pageHeight="1100" math="0" shadow="0">
      <root>
        <mxCell id="0" />
        <mxCell id="1" parent="0" />
        <mxCell id="R4-XNf2cqXM6LbsBFzB1-1" value="" style="swimlane;startSize=0;" parent="1" vertex="1">
          <mxGeometry x="130" y="110" width="440" height="570" as="geometry" />
        </mxCell>
        <mxCell id="R4-XNf2cqXM6LbsBFzB1-2" value="MANAGE Titles" style="ellipse;whiteSpace=wrap;html=1;" parent="R4-XNf2cqXM6LbsBFzB1-1" vertex="1">
          <mxGeometry x="10" y="100" width="100" height="70" as="geometry" />
        </mxCell>
        <mxCell id="R4-XNf2cqXM6LbsBFzB1-5" value="CREATE Titles" style="ellipse;whiteSpace=wrap;html=1;" parent="R4-XNf2cqXM6LbsBFzB1-1" vertex="1">
          <mxGeometry x="180" y="20" width="100" height="70" as="geometry" />
        </mxCell>
        <mxCell id="R4-XNf2cqXM6LbsBFzB1-6" value="UPDATE Titles" style="ellipse;whiteSpace=wrap;html=1;" parent="R4-XNf2cqXM6LbsBFzB1-1" vertex="1">
          <mxGeometry x="270" y="100" width="100" height="70" as="geometry" />
        </mxCell>
        <mxCell id="R4-XNf2cqXM6LbsBFzB1-7" value="DELETETitles" style="ellipse;whiteSpace=wrap;html=1;" parent="R4-XNf2cqXM6LbsBFzB1-1" vertex="1">
          <mxGeometry x="180" y="180" width="100" height="70" as="geometry" />
        </mxCell>
        <mxCell id="R4-XNf2cqXM6LbsBFzB1-8" value="" style="endArrow=none;html=1;rounded=0;exitX=1;exitY=0.5;exitDx=0;exitDy=0;entryX=0;entryY=0.5;entryDx=0;entryDy=0;" parent="R4-XNf2cqXM6LbsBFzB1-1" source="R4-XNf2cqXM6LbsBFzB1-2" target="R4-XNf2cqXM6LbsBFzB1-5" edge="1">
          <mxGeometry width="50" height="50" relative="1" as="geometry">
            <mxPoint x="270" y="340" as="sourcePoint" />
            <mxPoint x="320" y="290" as="targetPoint" />
          </mxGeometry>
        </mxCell>
        <mxCell id="R4-XNf2cqXM6LbsBFzB1-11" value="&amp;lt;&amp;lt;includes&amp;gt;&amp;gt;" style="edgeLabel;html=1;align=center;verticalAlign=middle;resizable=0;points=[];" parent="R4-XNf2cqXM6LbsBFzB1-8" vertex="1" connectable="0">
          <mxGeometry x="-0.06" y="-1" relative="1" as="geometry">
            <mxPoint as="offset" />
          </mxGeometry>
        </mxCell>
        <mxCell id="R4-XNf2cqXM6LbsBFzB1-12" value="" style="endArrow=none;html=1;rounded=0;exitX=1;exitY=0.5;exitDx=0;exitDy=0;entryX=0;entryY=0.5;entryDx=0;entryDy=0;" parent="R4-XNf2cqXM6LbsBFzB1-1" source="R4-XNf2cqXM6LbsBFzB1-2" target="R4-XNf2cqXM6LbsBFzB1-6" edge="1">
          <mxGeometry width="50" height="50" relative="1" as="geometry">
            <mxPoint x="120" y="145" as="sourcePoint" />
            <mxPoint x="190" y="65" as="targetPoint" />
          </mxGeometry>
        </mxCell>
        <mxCell id="R4-XNf2cqXM6LbsBFzB1-13" value="&amp;lt;&amp;lt;includes&amp;gt;&amp;gt;" style="edgeLabel;html=1;align=center;verticalAlign=middle;resizable=0;points=[];" parent="R4-XNf2cqXM6LbsBFzB1-12" vertex="1" connectable="0">
          <mxGeometry x="-0.06" y="-1" relative="1" as="geometry">
            <mxPoint as="offset" />
          </mxGeometry>
        </mxCell>
        <mxCell id="R4-XNf2cqXM6LbsBFzB1-14" value="" style="endArrow=none;html=1;rounded=0;exitX=1;exitY=0.5;exitDx=0;exitDy=0;entryX=0;entryY=0;entryDx=0;entryDy=0;" parent="R4-XNf2cqXM6LbsBFzB1-1" source="R4-XNf2cqXM6LbsBFzB1-2" target="R4-XNf2cqXM6LbsBFzB1-7" edge="1">
          <mxGeometry width="50" height="50" relative="1" as="geometry">
            <mxPoint x="120" y="145" as="sourcePoint" />
            <mxPoint x="280" y="145" as="targetPoint" />
          </mxGeometry>
        </mxCell>
        <mxCell id="R4-XNf2cqXM6LbsBFzB1-15" value="&amp;lt;&amp;lt;includes&amp;gt;&amp;gt;" style="edgeLabel;html=1;align=center;verticalAlign=middle;resizable=0;points=[];" parent="R4-XNf2cqXM6LbsBFzB1-14" vertex="1" connectable="0">
          <mxGeometry x="-0.06" y="-1" relative="1" as="geometry">
            <mxPoint as="offset" />
          </mxGeometry>
        </mxCell>
        <mxCell id="R4-XNf2cqXM6LbsBFzB1-17" value="HANDLE Reservations" style="ellipse;whiteSpace=wrap;html=1;" parent="R4-XNf2cqXM6LbsBFzB1-1" vertex="1">
          <mxGeometry x="10" y="350" width="100" height="70" as="geometry" />
        </mxCell>
        <mxCell id="R4-XNf2cqXM6LbsBFzB1-18" value="NOTIFY Borrower" style="ellipse;whiteSpace=wrap;html=1;" parent="R4-XNf2cqXM6LbsBFzB1-1" vertex="1">
          <mxGeometry x="270" y="350" width="100" height="70" as="geometry" />
        </mxCell>
        <mxCell id="R4-XNf2cqXM6LbsBFzB1-19" value="CANCEL Reservation" style="ellipse;whiteSpace=wrap;html=1;" parent="R4-XNf2cqXM6LbsBFzB1-1" vertex="1">
          <mxGeometry x="180" y="440" width="100" height="70" as="geometry" />
        </mxCell>
        <mxCell id="R4-XNf2cqXM6LbsBFzB1-20" value="RESERVE Title" style="ellipse;whiteSpace=wrap;html=1;" parent="R4-XNf2cqXM6LbsBFzB1-1" vertex="1">
          <mxGeometry x="180" y="260" width="100" height="70" as="geometry" />
        </mxCell>
        <mxCell id="R4-XNf2cqXM6LbsBFzB1-21" value="" style="endArrow=none;html=1;rounded=0;exitX=1;exitY=0.5;exitDx=0;exitDy=0;entryX=0;entryY=0.629;entryDx=0;entryDy=0;entryPerimeter=0;" parent="R4-XNf2cqXM6LbsBFzB1-1" source="R4-XNf2cqXM6LbsBFzB1-17" target="R4-XNf2cqXM6LbsBFzB1-20" edge="1">
          <mxGeometry width="50" height="50" relative="1" as="geometry">
            <mxPoint x="120" y="145" as="sourcePoint" />
            <mxPoint x="190" y="65" as="targetPoint" />
          </mxGeometry>
        </mxCell>
        <mxCell id="R4-XNf2cqXM6LbsBFzB1-22" value="&amp;lt;&amp;lt;includes&amp;gt;&amp;gt;" style="edgeLabel;html=1;align=center;verticalAlign=middle;resizable=0;points=[];" parent="R4-XNf2cqXM6LbsBFzB1-21" vertex="1" connectable="0">
          <mxGeometry x="-0.06" y="-1" relative="1" as="geometry">
            <mxPoint as="offset" />
          </mxGeometry>
        </mxCell>
        <mxCell id="R4-XNf2cqXM6LbsBFzB1-23" value="" style="endArrow=none;html=1;rounded=0;exitX=1;exitY=0.5;exitDx=0;exitDy=0;entryX=0;entryY=0.5;entryDx=0;entryDy=0;" parent="R4-XNf2cqXM6LbsBFzB1-1" source="R4-XNf2cqXM6LbsBFzB1-17" target="R4-XNf2cqXM6LbsBFzB1-18" edge="1">
          <mxGeometry width="50" height="50" relative="1" as="geometry">
            <mxPoint x="120" y="395" as="sourcePoint" />
            <mxPoint x="190" y="314" as="targetPoint" />
          </mxGeometry>
        </mxCell>
        <mxCell id="R4-XNf2cqXM6LbsBFzB1-24" value="&amp;lt;&amp;lt;includes&amp;gt;&amp;gt;" style="edgeLabel;html=1;align=center;verticalAlign=middle;resizable=0;points=[];" parent="R4-XNf2cqXM6LbsBFzB1-23" vertex="1" connectable="0">
          <mxGeometry x="-0.06" y="-1" relative="1" as="geometry">
            <mxPoint as="offset" />
          </mxGeometry>
        </mxCell>
        <mxCell id="R4-XNf2cqXM6LbsBFzB1-25" value="" style="endArrow=none;html=1;rounded=0;exitX=1;exitY=0.5;exitDx=0;exitDy=0;entryX=0;entryY=0;entryDx=0;entryDy=0;" parent="R4-XNf2cqXM6LbsBFzB1-1" source="R4-XNf2cqXM6LbsBFzB1-17" target="R4-XNf2cqXM6LbsBFzB1-19" edge="1">
          <mxGeometry width="50" height="50" relative="1" as="geometry">
            <mxPoint x="120" y="395" as="sourcePoint" />
            <mxPoint x="190" y="314" as="targetPoint" />
          </mxGeometry>
        </mxCell>
        <mxCell id="R4-XNf2cqXM6LbsBFzB1-26" value="&amp;lt;&amp;lt;includes&amp;gt;&amp;gt;" style="edgeLabel;html=1;align=center;verticalAlign=middle;resizable=0;points=[];" parent="R4-XNf2cqXM6LbsBFzB1-25" vertex="1" connectable="0">
          <mxGeometry x="-0.06" y="-1" relative="1" as="geometry">
            <mxPoint as="offset" />
          </mxGeometry>
        </mxCell>
        <mxCell id="R4-XNf2cqXM6LbsBFzB1-33" value="CHECKIOUT Title" style="ellipse;whiteSpace=wrap;html=1;" parent="R4-XNf2cqXM6LbsBFzB1-1" vertex="1">
          <mxGeometry x="320" y="190" width="100" height="70" as="geometry" />
        </mxCell>
        <mxCell id="R4-XNf2cqXM6LbsBFzB1-3" value="&lt;div&gt;Librarian&lt;/div&gt;&lt;div&gt;&lt;br&gt;&lt;/div&gt;" style="shape=umlActor;verticalLabelPosition=bottom;verticalAlign=top;html=1;outlineConnect=0;" parent="1" vertex="1">
          <mxGeometry x="10" y="350" width="30" height="60" as="geometry" />
        </mxCell>
        <mxCell id="R4-XNf2cqXM6LbsBFzB1-16" value="" style="endArrow=none;html=1;rounded=0;exitX=0.5;exitY=0.5;exitDx=0;exitDy=0;exitPerimeter=0;entryX=0;entryY=0.5;entryDx=0;entryDy=0;" parent="1" source="R4-XNf2cqXM6LbsBFzB1-3" target="R4-XNf2cqXM6LbsBFzB1-2" edge="1">
          <mxGeometry width="50" height="50" relative="1" as="geometry">
            <mxPoint x="400" y="450" as="sourcePoint" />
            <mxPoint x="450" y="400" as="targetPoint" />
          </mxGeometry>
        </mxCell>
        <mxCell id="R4-XNf2cqXM6LbsBFzB1-28" value="" style="endArrow=none;html=1;rounded=0;exitX=0.5;exitY=0.5;exitDx=0;exitDy=0;exitPerimeter=0;" parent="1" source="R4-XNf2cqXM6LbsBFzB1-3" target="R4-XNf2cqXM6LbsBFzB1-17" edge="1">
          <mxGeometry width="50" height="50" relative="1" as="geometry">
            <mxPoint x="400" y="450" as="sourcePoint" />
            <mxPoint x="450" y="400" as="targetPoint" />
          </mxGeometry>
        </mxCell>
        <mxCell id="R4-XNf2cqXM6LbsBFzB1-29" value="Borrower&lt;div&gt;&lt;br&gt;&lt;/div&gt;" style="shape=umlActor;verticalLabelPosition=bottom;verticalAlign=top;html=1;outlineConnect=0;" parent="1" vertex="1">
          <mxGeometry x="660" y="370" width="30" height="60" as="geometry" />
        </mxCell>
        <mxCell id="R4-XNf2cqXM6LbsBFzB1-30" value="" style="endArrow=none;html=1;rounded=0;entryX=0.5;entryY=0.5;entryDx=0;entryDy=0;entryPerimeter=0;exitX=1.02;exitY=0.414;exitDx=0;exitDy=0;exitPerimeter=0;" parent="1" source="R4-XNf2cqXM6LbsBFzB1-20" target="R4-XNf2cqXM6LbsBFzB1-29" edge="1">
          <mxGeometry width="50" height="50" relative="1" as="geometry">
            <mxPoint x="600" y="460" as="sourcePoint" />
            <mxPoint x="650" y="410" as="targetPoint" />
          </mxGeometry>
        </mxCell>
        <mxCell id="R4-XNf2cqXM6LbsBFzB1-31" value="" style="endArrow=none;html=1;rounded=0;exitX=1;exitY=0.5;exitDx=0;exitDy=0;" parent="1" source="R4-XNf2cqXM6LbsBFzB1-18" edge="1">
          <mxGeometry width="50" height="50" relative="1" as="geometry">
            <mxPoint x="600" y="460" as="sourcePoint" />
            <mxPoint x="670" y="400" as="targetPoint" />
          </mxGeometry>
        </mxCell>
        <mxCell id="R4-XNf2cqXM6LbsBFzB1-34" value="" style="endArrow=none;html=1;rounded=0;entryX=0.5;entryY=0.5;entryDx=0;entryDy=0;entryPerimeter=0;exitX=1;exitY=0.5;exitDx=0;exitDy=0;" parent="1" source="R4-XNf2cqXM6LbsBFzB1-33" target="R4-XNf2cqXM6LbsBFzB1-29" edge="1">
          <mxGeometry width="50" height="50" relative="1" as="geometry">
            <mxPoint x="600" y="460" as="sourcePoint" />
            <mxPoint x="650" y="410" as="targetPoint" />
          </mxGeometry>
        </mxCell>
        <mxCell id="R4-XNf2cqXM6LbsBFzB1-35" value="" style="endArrow=none;html=1;rounded=0;exitX=0.5;exitY=0.5;exitDx=0;exitDy=0;exitPerimeter=0;entryX=1;entryY=0.5;entryDx=0;entryDy=0;" parent="1" source="R4-XNf2cqXM6LbsBFzB1-29" target="R4-XNf2cqXM6LbsBFzB1-19" edge="1">
          <mxGeometry width="50" height="50" relative="1" as="geometry">
            <mxPoint x="600" y="460" as="sourcePoint" />
            <mxPoint x="640" y="500" as="targetPoint" />
          </mxGeometry>
        </mxCell>
        <mxCell id="R4-XNf2cqXM6LbsBFzB1-36" value="Librarian" style="swimlane;whiteSpace=wrap;html=1;" parent="1" vertex="1">
          <mxGeometry x="130" y="700" width="200" height="200" as="geometry" />
        </mxCell>
        <mxCell id="R4-XNf2cqXM6LbsBFzB1-38" value="&lt;span class=&quot;hljs-operator&quot;&gt;-&lt;/span&gt; name: String&amp;nbsp;&lt;br&gt;&amp;nbsp; &amp;nbsp;&lt;span class=&quot;hljs-operator&quot;&gt;-&lt;/span&gt; address: String" style="text;html=1;align=center;verticalAlign=middle;resizable=0;points=[];autosize=1;strokeColor=none;fillColor=none;" parent="R4-XNf2cqXM6LbsBFzB1-36" vertex="1">
          <mxGeometry x="-10" y="30" width="120" height="40" as="geometry" />
        </mxCell>
        <mxCell id="R4-XNf2cqXM6LbsBFzB1-39" value="Borrower" style="swimlane;whiteSpace=wrap;html=1;" parent="1" vertex="1">
          <mxGeometry x="370" y="700" width="200" height="200" as="geometry" />
        </mxCell>
        <mxCell id="R4-XNf2cqXM6LbsBFzB1-40" value="&amp;nbsp; &amp;nbsp; &amp;nbsp; &amp;nbsp; &amp;nbsp; &amp;nbsp;&lt;span class=&quot;hljs-operator&quot;&gt;-&lt;/span&gt; borrowerID: &amp;nbsp;&amp;nbsp;String &amp;nbsp;&amp;nbsp;&lt;div&gt;&lt;span style=&quot;background-color: initial;&quot; class=&quot;hljs-operator&quot;&gt;-&lt;/span&gt;&lt;span style=&quot;background-color: initial;&quot;&gt; name: String &lt;/span&gt;&lt;span style=&quot;background-color: initial;&quot;&gt;&amp;nbsp;&lt;/span&gt;&lt;div&gt;&amp;nbsp; &amp;nbsp; &amp;nbsp; &amp;nbsp; &amp;nbsp;&amp;nbsp;&lt;span class=&quot;hljs-operator&quot;&gt;-&lt;/span&gt; contactInfo: &amp;nbsp;&amp;nbsp;String&amp;nbsp;&lt;/div&gt;&lt;/div&gt;" style="text;html=1;align=center;verticalAlign=middle;resizable=0;points=[];autosize=1;strokeColor=none;fillColor=none;" parent="R4-XNf2cqXM6LbsBFzB1-39" vertex="1">
          <mxGeometry x="-40" y="20" width="180" height="60" as="geometry" />
        </mxCell>
        <mxCell id="DR6ckXMDACbLpAPeY0SF-1" value="Text" style="text;html=1;align=center;verticalAlign=middle;whiteSpace=wrap;rounded=0;" vertex="1" parent="1">
          <mxGeometry x="390" y="310" width="60" height="30" as="geometry" />
        </mxCell>
        <mxCell id="DR6ckXMDACbLpAPeY0SF-2" value="Library System" style="text;html=1;align=center;verticalAlign=middle;whiteSpace=wrap;rounded=0;" vertex="1" parent="1">
          <mxGeometry x="240" y="60" width="220" height="50" as="geometry" />
        </mxCell>
      </root>
    </mxGraphModel>
  </diagram>
</mxfile>
